<?xml version="1.0" encoding="UTF-8"?>
<!DOCTYPE svg PUBLIC "-//W3C//DTD SVG 1.1//EN" "http://www.w3.org/Graphics/SVG/1.1/DTD/svg11.dtd">
<!-- Creator: CorelDRAW -->
<svg xmlns="http://www.w3.org/2000/svg" xml:space="preserve" width="155" height="35" version="1.1" style="shape-rendering:geometricPrecision; text-rendering:geometricPrecision; image-rendering:optimizeQuality; fill-rule:evenodd; clip-rule:evenodd"
viewBox="0 0 3315.82 912.36"
 xmlns:xlink="http://www.w3.org/1999/xlink"
 xmlns:xodm="http://www.corel.com/coreldraw/odm/2003">
 <defs>
  <style type="text/css">
   <![CDATA[
    .str0 {stroke:#7391CC;stroke-width:3.81;stroke-miterlimit:2.61313}
    .fil3 {fill:none}
    .fil2 {fill:#2A4594}
    .fil4 {fill:#DE7504}
    .fil5 {fill:white}
    .fil0 {fill:#21417D;fill-rule:nonzero}
    .fil1 {fill:black;fill-rule:nonzero}
   ]]>
  </style>
    <clipPath id="id0">
     <path d="M573.8 89.69c-2.34,67.11 0.54,142.54 -0.31,211.58 -0.23,18.47 -1.24,17.94 8.73,27.93 10.55,10.57 8.97,8.65 27.97,8.65l196.36 0c8.44,0 17.25,1.59 27.64,-13.36 7.18,-10.33 3.14,-175.92 3.16,-200.2 0.02,-22.69 3.82,-32.79 -13.42,-46.29 -7.37,-5.77 -6.09,-3.81 -17.67,-3.81l-216.28 -0.14c-5.15,5.89 -9.49,10.99 -16.18,15.63zm-286.77 13.08l0 205.63c0,32.16 31.81,29.36 43.41,29.29l179.35 0.01c16.63,0.13 19.69,3.57 31.04,-7.8 14.8,-14.85 9.98,-27.88 9.98,-62.15 0,-21.63 3.28,-169.86 -2.6,-179.56 -5.6,-9.23 -12.97,-14.33 -24.09,-14.33l-209.81 0c-16.44,-0 -27.27,11.22 -27.27,28.91zm-284.8 220.9l14.36 13.46 227.4 -0.1c4.84,-1.34 15.93,-11.93 18.06,-15.92 4.58,-8.63 2.14,-161.1 2.14,-192.04 0.01,-50.58 2.04,-30.38 -14.02,-53.33 -119.5,2.29 -244.21,122.92 -247.94,247.92zm0.27 51.02c-1.22,67.07 47.33,136.5 77.14,167.81 33.36,35.05 96.31,74.12 167.12,80.09 23.9,-18 17.43,-24.33 17.43,-60.74l0 -153.03c0.03,-15.32 4.81,-48.32 -31.78,-48.32l-198.46 0c-26.01,0 -16.71,2.53 -31.46,14.18zm299.21 275.63c-19.52,15.84 -14.68,23.07 -14.67,50.21 0.01,34.45 -3.95,185.4 2.61,196.28 11.66,19.34 29.51,14.36 50.37,14.35 34.56,-0.01 185.28,3.97 196.25,-2.53 19.6,-11.61 14.56,-29.42 14.55,-50.29 -0.01,-31.36 2.85,-187.38 -2.8,-196 -1.49,-2.28 -12.98,-13.29 -17.06,-14.39 -3.84,-1.03 -222.52,-3.09 -229.25,2.37zm-301.22 208.02c-0.01,28.4 -4.37,34.85 13.38,48.71 11.09,8.67 43.79,3.78 60.73,3.78l126.73 0.1c33.03,0 63.41,8.39 63.08,-33.38l-0.11 -95.72c0,-20.33 4.68,-111.19 -5.05,-122.46 -15.05,-17.45 -24.25,-12.2 -53.13,-12.2l-189.4 0.68 -16.17 15.82 -0.06 194.67zm587.09 50.96c121.53,-3.41 246.36,-125.57 247.96,-247.92 -6.96,-5.09 -9.32,-7.43 -13.79,-13.99l-197.21 -0.05c-18.85,-0.02 -38.11,-3.32 -48.73,16.6 -4.62,8.67 -2.14,162.97 -2.16,194.4 -0.02,40.06 -3.74,24.92 13.92,50.96zm247.76 -298.89c1.26,-69.47 -53.63,-148.11 -85.72,-175.98 -37.01,-32.15 -74.42,-55.31 -126.75,-67 -17.27,-3.86 -39.02,-10.06 -47.8,11.3l-0.68 225.76c1.36,4.68 12.13,15.99 15.95,17.98 8.58,4.48 161.08,2.05 192,2.05 51.11,0.01 31.33,2.39 52.99,-14.11z"/>
    </clipPath>
    <clipPath id="id1">
     <path d="M287.53 377.12l-0.47 231.19 16.38 15.61 206.32 0.48c15.15,0.04 41.03,2.63 41.03,-29.07l0 -205.63c0,-10.34 1.72,-10.5 -10.89,-22.95 -8.89,-8.78 -13.76,-6.3 -27.73,-6.16l-209.14 0.18 -15.51 16.35z"/>
    </clipPath>
 </defs>
 <g id="Layer_x0020_1">
  <metadata id="CorelCorpID_0Corel-Layer"/>
  <g id="_105553234765280">
   <path class="fil0" d="M1208.22 547.17l0 -124.42c0,-9.13 -2.37,-16.6 -7.1,-22.4 -4.73,-5.79 -10.72,-8.69 -17.96,-8.69l-197.98 0c-6.96,0 -12.81,2.9 -17.54,8.69 -4.73,5.8 -7.11,13.27 -7.11,22.4l0 124.42c0,9.13 2.37,16.6 7.11,22.4 4.73,5.8 10.58,8.69 17.54,8.69l197.98 0c7.24,0 13.23,-2.89 17.96,-8.69 4.73,-5.8 7.1,-13.27 7.1,-22.4zm81.87 -139.7l0 154.99c0,31.28 -8.28,56.93 -24.86,76.97 -16.57,20.03 -37.94,30.05 -64.11,30.05l-233.06 0c-26.18,0 -47.62,-10.02 -64.33,-30.05 -16.71,-20.04 -25.06,-45.69 -25.06,-76.97l0 -154.99c0,-31.28 8.35,-56.94 25.06,-76.97 16.71,-20.04 38.15,-30.05 64.33,-30.05l233.06 0c26.17,0 47.54,10.02 64.11,30.05 16.57,20.03 24.86,45.69 24.86,76.97zm137.41 -107.02l0 277.82 262.72 0 0 91.21 -344.59 0 0 -369.03 81.87 0zm650.74 0l-183.78 369.03 -84.78 0 -183.78 -369.03 96.06 0 129.9 273.08 130.31 -273.08 96.07 0zm382.59 228.27l-270.65 0 0 49.55 281.52 0 0 91.21 -363.38 0 0 -369.03 362.55 0 0 91.21 -280.68 0 0 49.03 270.65 0 0 88.04zm147.44 -228.27l0 369.03 -81.86 0 0 -369.03 81.86 0zm359.2 369.03l-214.27 0c-26.18,0 -47.62,-10.02 -64.33,-30.05 -16.7,-20.04 -25.06,-45.69 -25.06,-76.97l0 -154.99c0,-31.28 8.36,-56.94 25.06,-76.97 16.71,-20.04 38.15,-30.05 64.33,-30.05l306.15 0 0 91.21 -289.03 0c-6.96,0 -12.81,2.9 -17.54,8.69 -4.73,5.8 -7.11,13.27 -7.11,22.4l0 124.42c0,9.13 2.37,16.6 7.11,22.4 4.73,5.8 10.58,8.69 17.54,8.69l217.61 0 0 -51.66 -202.58 0 0 -82.76 280.69 0 0 225.63 -69.33 0 -8.36 -14.76 -20.88 14.76z"/>
   <path class="fil1" d="M1124.23 754.79l-144.62 0 0 86.77 115.7 0 0 28.93 -115.7 0 0 28.93 144.62 0 0 -86.77 -115.69 0 0 -28.93 115.69 0 0 -28.92zm460.22 144.62l0 -144.62 -144.62 0 0 144.62 144.62 0zm-115.69 -28.93l0 -86.78 86.77 0 0 86.78 -86.77 0zm431.29 28.93l144.62 0 0 -28.93 -115.69 0 0 -115.69 -28.93 0 0 144.62zm560.57 -28.93l11.26 28.93 33.01 0 -57.85 -144.62 -28.92 0 -57.85 144.62 33.01 0 11.26 -28.93 56.08 0zm-44.74 -28.93l16.73 -43.42 16.66 43.42 -33.4 0zm520.3 -57.85l0 28.93 -86.77 0 0 -28.93 86.77 0zm-6.79 115.7l35.71 0 -51.06 -57.85 51.06 0 0 -86.77 -144.62 0 0 144.62 28.93 0 0 -57.85 28.93 0 51.06 57.85z"/>
   <path class="fil2" d="M573.8 89.69c-2.34,67.11 0.54,142.54 -0.31,211.58 -0.23,18.47 -1.24,17.94 8.73,27.93 10.55,10.57 8.97,8.65 27.97,8.65l196.36 0c8.44,0 17.25,1.59 27.64,-13.36 7.18,-10.33 3.14,-175.92 3.16,-200.2 0.02,-22.69 3.82,-32.79 -13.42,-46.29 -7.37,-5.77 -6.09,-3.81 -17.67,-3.81l-216.28 -0.14c-5.15,5.89 -9.49,10.99 -16.18,15.63zm-286.77 13.08l0 205.63c0,32.16 31.81,29.36 43.41,29.29l179.35 0.01c16.63,0.13 19.69,3.57 31.04,-7.8 14.8,-14.85 9.98,-27.88 9.98,-62.15 0,-21.63 3.28,-169.86 -2.6,-179.56 -5.6,-9.23 -12.97,-14.33 -24.09,-14.33l-209.81 0c-16.44,-0 -27.27,11.22 -27.27,28.91zm-284.8 220.9l14.36 13.46 227.4 -0.1c4.84,-1.34 15.93,-11.93 18.06,-15.92 4.58,-8.63 2.14,-161.1 2.14,-192.04 0.01,-50.58 2.04,-30.38 -14.02,-53.33 -119.5,2.29 -244.21,122.92 -247.94,247.92zm0.27 51.02c-1.22,67.07 47.33,136.5 77.14,167.81 33.36,35.05 96.31,74.12 167.12,80.09 23.9,-18 17.43,-24.33 17.43,-60.74l0 -153.03c0.03,-15.32 4.81,-48.32 -31.78,-48.32l-198.46 0c-26.01,0 -16.71,2.53 -31.46,14.18zm299.21 275.63c-19.52,15.84 -14.68,23.07 -14.67,50.21 0.01,34.45 -3.95,185.4 2.61,196.28 11.66,19.34 29.51,14.36 50.37,14.35 34.56,-0.01 185.28,3.97 196.25,-2.53 19.6,-11.61 14.56,-29.42 14.55,-50.29 -0.01,-31.36 2.85,-187.38 -2.8,-196 -1.49,-2.28 -12.98,-13.29 -17.06,-14.39 -3.84,-1.03 -222.52,-3.09 -229.25,2.37zm-301.22 208.02c-0.01,28.4 -4.37,34.85 13.38,48.71 11.09,8.67 43.79,3.78 60.73,3.78l126.73 0.1c33.03,0 63.41,8.39 63.08,-33.38l-0.11 -95.72c0,-20.33 4.68,-111.19 -5.05,-122.46 -15.05,-17.45 -24.25,-12.2 -53.13,-12.2l-189.4 0.68 -16.17 15.82 -0.06 194.67zm587.09 50.96c121.53,-3.41 246.36,-125.57 247.96,-247.92 -6.96,-5.09 -9.32,-7.43 -13.79,-13.99l-197.21 -0.05c-18.85,-0.02 -38.11,-3.32 -48.73,16.6 -4.62,8.67 -2.14,162.97 -2.16,194.4 -0.02,40.06 -3.74,24.92 13.92,50.96zm247.76 -298.89c1.26,-69.47 -53.63,-148.11 -85.72,-175.98 -37.01,-32.15 -74.42,-55.31 -126.75,-67 -17.27,-3.86 -39.02,-10.06 -47.8,11.3l-0.68 225.76c1.36,4.68 12.13,15.99 15.95,17.98 8.58,4.48 161.08,2.05 192,2.05 51.11,0.01 31.33,2.39 52.99,-14.11z"/>
   <g style="clip-path:url(#id0)">
    <g>
     <line id="_1" class="fil3 str0" x1="95.57" y1="-147.29" x2="95.57" y2= "983.34" />
     <line class="fil3 str0" x1="365.37" y1="-147.29" x2="365.37" y2= "983.34" />
     <line class="fil3 str0" x1="656.94" y1="-147.29" x2="656.94" y2= "983.34" />
     <line class="fil3 str0" x1="191.3" y1="-147.29" x2="191.3" y2= "983.34" />
     <line class="fil3 str0" x1="461.1" y1="-147.29" x2="461.1" y2= "983.34" />
     <line class="fil3 str0" x1="752.68" y1="-147.29" x2="752.68" y2= "983.34" />
    </g>
   </g>
   <path class="fil3" d="M573.8 89.69c-2.34,67.11 0.54,142.54 -0.31,211.58 -0.23,18.47 -1.24,17.94 8.73,27.93 10.55,10.57 8.97,8.65 27.97,8.65l196.36 0c8.44,0 17.25,1.59 27.64,-13.36 7.18,-10.33 3.14,-175.92 3.16,-200.2 0.02,-22.69 3.82,-32.79 -13.42,-46.29 -7.37,-5.77 -6.09,-3.81 -17.67,-3.81l-216.28 -0.14c-5.15,5.89 -9.49,10.99 -16.18,15.63zm-286.77 13.08l0 205.63c0,32.16 31.81,29.36 43.41,29.29l179.35 0.01c16.63,0.13 19.69,3.57 31.04,-7.8 14.8,-14.85 9.98,-27.88 9.98,-62.15 0,-21.63 3.28,-169.86 -2.6,-179.56 -5.6,-9.23 -12.97,-14.33 -24.09,-14.33l-209.81 0c-16.44,-0 -27.27,11.22 -27.27,28.91zm-284.8 220.9l14.36 13.46 227.4 -0.1c4.84,-1.34 15.93,-11.93 18.06,-15.92 4.58,-8.63 2.14,-161.1 2.14,-192.04 0.01,-50.58 2.04,-30.38 -14.02,-53.33 -119.5,2.29 -244.21,122.92 -247.94,247.92zm0.27 51.02c-1.22,67.07 47.33,136.5 77.14,167.81 33.36,35.05 96.31,74.12 167.12,80.09 23.9,-18 17.43,-24.33 17.43,-60.74l0 -153.03c0.03,-15.32 4.81,-48.32 -31.78,-48.32l-198.46 0c-26.01,0 -16.71,2.53 -31.46,14.18zm299.21 275.63c-19.52,15.84 -14.68,23.07 -14.67,50.21 0.01,34.45 -3.95,185.4 2.61,196.28 11.66,19.34 29.51,14.36 50.37,14.35 34.56,-0.01 185.28,3.97 196.25,-2.53 19.6,-11.61 14.56,-29.42 14.55,-50.29 -0.01,-31.36 2.85,-187.38 -2.8,-196 -1.49,-2.28 -12.98,-13.29 -17.06,-14.39 -3.84,-1.03 -222.52,-3.09 -229.25,2.37zm-301.22 208.02c-0.01,28.4 -4.37,34.85 13.38,48.71 11.09,8.67 43.79,3.78 60.73,3.78l126.73 0.1c33.03,0 63.41,8.39 63.08,-33.38l-0.11 -95.72c0,-20.33 4.68,-111.19 -5.05,-122.46 -15.05,-17.45 -24.25,-12.2 -53.13,-12.2l-189.4 0.68 -16.17 15.82 -0.06 194.67zm587.09 50.96c121.53,-3.41 246.36,-125.57 247.96,-247.92 -6.96,-5.09 -9.32,-7.43 -13.79,-13.99l-197.21 -0.05c-18.85,-0.02 -38.11,-3.32 -48.73,16.6 -4.62,8.67 -2.14,162.97 -2.16,194.4 -0.02,40.06 -3.74,24.92 13.92,50.96zm247.76 -298.89c1.26,-69.47 -53.63,-148.11 -85.72,-175.98 -37.01,-32.15 -74.42,-55.31 -126.75,-67 -17.27,-3.86 -39.02,-10.06 -47.8,11.3l-0.68 225.76c1.36,4.68 12.13,15.99 15.95,17.98 8.58,4.48 161.08,2.05 192,2.05 51.11,0.01 31.33,2.39 52.99,-14.11z"/>
   <path class="fil4" d="M287.53 377.12l-0.47 231.19 16.38 15.61 206.32 0.48c15.15,0.04 41.03,2.63 41.03,-29.07l0 -205.63c0,-10.34 1.72,-10.5 -10.89,-22.95 -8.89,-8.78 -13.76,-6.3 -27.73,-6.16l-209.14 0.18 -15.51 16.35z"/>
   <g style="clip-path:url(#id1)">
    <g>
     <g>
      <polygon id="_1_0" class="fil5" points="421.37,464.3 416.58,464.3 419,284.45 "/>
      <polygon class="fil5" points="410.16,465.58 405.74,467.41 339.15,300.33 "/>
      <polygon class="fil5" points="400.3,471.05 396.91,474.44 271.45,345.55 "/>
      <polygon class="fil5" points="393.27,479.88 391.44,484.3 226.21,413.24 "/>
      <polygon class="fil5" points="390.17,490.72 390.17,495.51 210.32,493.09 "/>
      <polygon class="fil5" points="391.44,501.93 393.27,506.35 226.19,572.94 "/>
      <polygon class="fil5" points="396.91,511.79 400.3,515.18 271.41,640.64 "/>
      <polygon class="fil5" points="405.74,518.81 410.16,520.65 339.1,685.88 "/>
      <polygon class="fil5" points="416.58,521.92 421.37,521.92 418.95,701.77 "/>
      <polygon class="fil5" points="427.79,520.65 432.21,518.81 498.8,685.9 "/>
      <polygon class="fil5" points="437.65,515.18 441.04,511.79 566.5,640.68 "/>
      <polygon class="fil5" points="444.68,506.35 446.51,501.93 611.74,572.99 "/>
      <polygon class="fil5" points="447.78,495.51 447.78,490.72 627.64,493.14 "/>
      <polygon class="fil5" points="446.51,484.3 444.68,479.88 611.76,413.29 "/>
      <polygon class="fil5" points="441.04,474.44 437.65,471.05 566.54,345.59 "/>
      <polygon class="fil5" points="432.21,467.41 427.79,465.58 498.85,300.35 "/>
      <circle class="fil5" cx="418.98" cy="493.11" r="28.36"/>
     </g>
    </g>
   </g>
   <path class="fil3" d="M287.53 377.12l-0.47 231.19 16.38 15.61 206.32 0.48c15.15,0.04 41.03,2.63 41.03,-29.07l0 -205.63c0,-10.34 1.72,-10.5 -10.89,-22.95 -8.89,-8.78 -13.76,-6.3 -27.73,-6.16l-209.14 0.18 -15.51 16.35z"/>
   <path class="fil0" d="M3162.06 0l0 20.13 -33.15 0 0 104.24 -24.94 0 0 -104.24 -33.14 0 0 -20.13 91.23 0zm153.76 0l0 124.37 -24.94 0 0 -80.89 -33.32 80.89 -18.88 0 -33.5 -80.89 0 80.89 -24.95 0 0 -124.37 28.33 0 39.56 92.48 39.56 -92.48 28.16 0z"/>
  </g>
 </g>
</svg>
